<mxfile host="65bd71144e" pages="2">
    <diagram name="Page-1" id="tI4u4nP9JffL1rXndaB4">
        <mxGraphModel dx="704" dy="774" grid="1" gridSize="10" guides="1" tooltips="1" connect="1" arrows="1" fold="1" page="1" pageScale="1" pageWidth="850" pageHeight="1100" math="0" shadow="0" adaptiveColors="auto">
            <root>
                <mxCell id="0"/>
                <mxCell id="1" parent="0"/>
                <mxCell id="nb_6ZIkmi3zEc-lVoM6n-12" value="" style="endArrow=none;dashed=1;html=1;rounded=0;strokeColor=#736CA8;fontColor=#1A1A1A;startSize=6;strokeWidth=4;" parent="1" edge="1">
                    <mxGeometry width="50" height="50" relative="1" as="geometry">
                        <mxPoint x="840" y="80" as="sourcePoint"/>
                        <mxPoint x="840" y="440" as="targetPoint"/>
                    </mxGeometry>
                </mxCell>
                <mxCell id="nb_6ZIkmi3zEc-lVoM6n-2" style="edgeStyle=orthogonalEdgeStyle;rounded=0;orthogonalLoop=1;jettySize=auto;html=1;strokeColor=#736CA8;fontColor=#1A1A1A;entryX=0;entryY=0.5;entryDx=0;entryDy=0;" parent="1" source="nb_6ZIkmi3zEc-lVoM6n-1" target="nb_6ZIkmi3zEc-lVoM6n-3" edge="1">
                    <mxGeometry relative="1" as="geometry">
                        <mxPoint x="390" y="160" as="targetPoint"/>
                    </mxGeometry>
                </mxCell>
                <mxCell id="nb_6ZIkmi3zEc-lVoM6n-5" style="edgeStyle=orthogonalEdgeStyle;rounded=0;orthogonalLoop=1;jettySize=auto;html=1;entryX=0;entryY=0.5;entryDx=0;entryDy=0;strokeColor=#736CA8;fontColor=#1A1A1A;" parent="1" source="nb_6ZIkmi3zEc-lVoM6n-1" target="nb_6ZIkmi3zEc-lVoM6n-4" edge="1">
                    <mxGeometry relative="1" as="geometry"/>
                </mxCell>
                <mxCell id="nb_6ZIkmi3zEc-lVoM6n-1" value="ISERDES" style="rounded=0;whiteSpace=wrap;html=1;labelBackgroundColor=none;fillColor=#b1ddf0;strokeColor=#10739e;" parent="1" vertex="1">
                    <mxGeometry x="120" y="170" width="120" height="140" as="geometry"/>
                </mxCell>
                <mxCell id="nb_6ZIkmi3zEc-lVoM6n-7" style="edgeStyle=orthogonalEdgeStyle;rounded=0;orthogonalLoop=1;jettySize=auto;html=1;entryX=0.25;entryY=1;entryDx=0;entryDy=0;strokeColor=#736CA8;fontColor=#1A1A1A;" parent="1" source="nb_6ZIkmi3zEc-lVoM6n-3" target="nb_6ZIkmi3zEc-lVoM6n-6" edge="1">
                    <mxGeometry relative="1" as="geometry"/>
                </mxCell>
                <mxCell id="nb_6ZIkmi3zEc-lVoM6n-3" value="8:16 Gearbox" style="rounded=0;whiteSpace=wrap;html=1;labelBackgroundColor=none;fillColor=#b1ddf0;strokeColor=#10739e;" parent="1" vertex="1">
                    <mxGeometry x="400" y="80" width="120" height="140" as="geometry"/>
                </mxCell>
                <mxCell id="nb_6ZIkmi3zEc-lVoM6n-8" style="edgeStyle=orthogonalEdgeStyle;rounded=0;orthogonalLoop=1;jettySize=auto;html=1;entryX=0.75;entryY=1;entryDx=0;entryDy=0;strokeColor=#736CA8;fontColor=#1A1A1A;" parent="1" source="nb_6ZIkmi3zEc-lVoM6n-4" target="nb_6ZIkmi3zEc-lVoM6n-6" edge="1">
                    <mxGeometry relative="1" as="geometry"/>
                </mxCell>
                <mxCell id="nb_6ZIkmi3zEc-lVoM6n-4" value="8:12 Gearbox" style="rounded=0;whiteSpace=wrap;html=1;labelBackgroundColor=none;fillColor=#b1ddf0;strokeColor=#10739e;" parent="1" vertex="1">
                    <mxGeometry x="400" y="260" width="120" height="140" as="geometry"/>
                </mxCell>
                <mxCell id="nb_6ZIkmi3zEc-lVoM6n-10" style="edgeStyle=orthogonalEdgeStyle;rounded=0;orthogonalLoop=1;jettySize=auto;html=1;entryX=0;entryY=0.5;entryDx=0;entryDy=0;strokeColor=#736CA8;fontColor=#1A1A1A;" parent="1" source="nb_6ZIkmi3zEc-lVoM6n-6" target="nb_6ZIkmi3zEc-lVoM6n-9" edge="1">
                    <mxGeometry relative="1" as="geometry"/>
                </mxCell>
                <mxCell id="nb_6ZIkmi3zEc-lVoM6n-6" value="" style="shape=trapezoid;perimeter=trapezoidPerimeter;whiteSpace=wrap;html=1;fixedSize=1;strokeColor=#D0CEE2;fontColor=#1A1A1A;fillColor=#5D7F99;rotation=90;" parent="1" vertex="1">
                    <mxGeometry x="570" y="210" width="120" height="60" as="geometry"/>
                </mxCell>
                <mxCell id="nb_6ZIkmi3zEc-lVoM6n-15" style="edgeStyle=orthogonalEdgeStyle;rounded=0;orthogonalLoop=1;jettySize=auto;html=1;entryX=0;entryY=0.5;entryDx=0;entryDy=0;strokeColor=#736CA8;fontColor=#1A1A1A;" parent="1" source="nb_6ZIkmi3zEc-lVoM6n-9" target="nb_6ZIkmi3zEc-lVoM6n-11" edge="1">
                    <mxGeometry relative="1" as="geometry"/>
                </mxCell>
                <mxCell id="nb_6ZIkmi3zEc-lVoM6n-9" value="CDC" style="whiteSpace=wrap;html=1;aspect=fixed;strokeColor=#10739e;fontColor=default;fillColor=#b1ddf0;rounded=0;align=center;verticalAlign=middle;fontFamily=Helvetica;fontSize=12;labelBackgroundColor=none;" parent="1" vertex="1">
                    <mxGeometry x="800" y="200" width="80" height="80" as="geometry"/>
                </mxCell>
                <mxCell id="nb_6ZIkmi3zEc-lVoM6n-16" style="edgeStyle=orthogonalEdgeStyle;rounded=0;orthogonalLoop=1;jettySize=auto;html=1;strokeColor=#736CA8;fontColor=#1A1A1A;entryX=0;entryY=0.5;entryDx=0;entryDy=0;" parent="1" source="nb_6ZIkmi3zEc-lVoM6n-11" target="nb_6ZIkmi3zEc-lVoM6n-18" edge="1">
                    <mxGeometry relative="1" as="geometry">
                        <mxPoint x="1150" y="240" as="targetPoint"/>
                    </mxGeometry>
                </mxCell>
                <mxCell id="nb_6ZIkmi3zEc-lVoM6n-11" value="Byte Shuffler" style="whiteSpace=wrap;html=1;aspect=fixed;strokeColor=#10739e;fontColor=default;fillColor=#b1ddf0;rounded=0;align=center;verticalAlign=middle;fontFamily=Helvetica;fontSize=12;labelBackgroundColor=none;" parent="1" vertex="1">
                    <mxGeometry x="960" y="200" width="80" height="80" as="geometry"/>
                </mxCell>
                <mxCell id="nb_6ZIkmi3zEc-lVoM6n-13" value="Sys&lt;div&gt;Clock Domain&lt;/div&gt;" style="text;html=1;align=left;verticalAlign=middle;resizable=0;points=[];autosize=1;strokeColor=none;fillColor=none;fontColor=#1A1A1A;fontSize=16;" parent="1" vertex="1">
                    <mxGeometry x="850" y="70" width="120" height="50" as="geometry"/>
                </mxCell>
                <mxCell id="nb_6ZIkmi3zEc-lVoM6n-14" value="ADC Frame&lt;div&gt;Clock Domain&lt;/div&gt;" style="text;html=1;align=left;verticalAlign=middle;resizable=0;points=[];autosize=1;strokeColor=none;fillColor=none;fontColor=#1A1A1A;fontSize=16;" parent="1" vertex="1">
                    <mxGeometry x="730" y="70" width="120" height="50" as="geometry"/>
                </mxCell>
                <mxCell id="nb_6ZIkmi3zEc-lVoM6n-18" value="ADC Source" style="shape=hexagon;perimeter=hexagonPerimeter2;whiteSpace=wrap;html=1;fixedSize=1;strokeColor=#D0CEE2;fontColor=#1A1A1A;fillColor=#5D7F99;" parent="1" vertex="1">
                    <mxGeometry x="1100" y="220" width="90" height="40" as="geometry"/>
                </mxCell>
                <mxCell id="nb_6ZIkmi3zEc-lVoM6n-19" style="edgeStyle=orthogonalEdgeStyle;rounded=0;orthogonalLoop=1;jettySize=auto;html=1;strokeColor=#736CA8;fontColor=#1A1A1A;entryX=0;entryY=0.5;entryDx=0;entryDy=0;" parent="1" source="nb_6ZIkmi3zEc-lVoM6n-21" target="nb_6ZIkmi3zEc-lVoM6n-23" edge="1">
                    <mxGeometry relative="1" as="geometry">
                        <mxPoint x="390" y="520" as="targetPoint"/>
                    </mxGeometry>
                </mxCell>
                <mxCell id="nb_6ZIkmi3zEc-lVoM6n-20" style="edgeStyle=orthogonalEdgeStyle;rounded=0;orthogonalLoop=1;jettySize=auto;html=1;entryX=0;entryY=0.5;entryDx=0;entryDy=0;strokeColor=#736CA8;fontColor=#1A1A1A;" parent="1" source="nb_6ZIkmi3zEc-lVoM6n-21" target="nb_6ZIkmi3zEc-lVoM6n-25" edge="1">
                    <mxGeometry relative="1" as="geometry"/>
                </mxCell>
                <mxCell id="nb_6ZIkmi3zEc-lVoM6n-21" value="ISERDES" style="rounded=0;whiteSpace=wrap;html=1;labelBackgroundColor=none;fillColor=#b1ddf0;strokeColor=#10739e;" parent="1" vertex="1">
                    <mxGeometry x="120" y="530" width="120" height="140" as="geometry"/>
                </mxCell>
                <mxCell id="nb_6ZIkmi3zEc-lVoM6n-22" style="edgeStyle=orthogonalEdgeStyle;rounded=0;orthogonalLoop=1;jettySize=auto;html=1;entryX=0.25;entryY=1;entryDx=0;entryDy=0;strokeColor=#736CA8;fontColor=#1A1A1A;" parent="1" source="nb_6ZIkmi3zEc-lVoM6n-23" target="nb_6ZIkmi3zEc-lVoM6n-26" edge="1">
                    <mxGeometry relative="1" as="geometry"/>
                </mxCell>
                <mxCell id="nb_6ZIkmi3zEc-lVoM6n-23" value="8:16 Gearbox" style="rounded=0;whiteSpace=wrap;html=1;labelBackgroundColor=none;fillColor=#b1ddf0;strokeColor=#10739e;" parent="1" vertex="1">
                    <mxGeometry x="400" y="440" width="120" height="140" as="geometry"/>
                </mxCell>
                <mxCell id="nb_6ZIkmi3zEc-lVoM6n-24" style="edgeStyle=orthogonalEdgeStyle;rounded=0;orthogonalLoop=1;jettySize=auto;html=1;entryX=0.75;entryY=1;entryDx=0;entryDy=0;strokeColor=#736CA8;fontColor=#1A1A1A;" parent="1" source="nb_6ZIkmi3zEc-lVoM6n-25" target="nb_6ZIkmi3zEc-lVoM6n-26" edge="1">
                    <mxGeometry relative="1" as="geometry"/>
                </mxCell>
                <mxCell id="nb_6ZIkmi3zEc-lVoM6n-25" value="8:12 Gearbox" style="rounded=0;whiteSpace=wrap;html=1;labelBackgroundColor=none;fillColor=#b1ddf0;strokeColor=#10739e;" parent="1" vertex="1">
                    <mxGeometry x="400" y="620" width="120" height="140" as="geometry"/>
                </mxCell>
                <mxCell id="nb_6ZIkmi3zEc-lVoM6n-28" style="edgeStyle=orthogonalEdgeStyle;rounded=0;orthogonalLoop=1;jettySize=auto;html=1;entryX=0;entryY=0.5;entryDx=0;entryDy=0;strokeColor=#736CA8;fontColor=#1A1A1A;" parent="1" source="nb_6ZIkmi3zEc-lVoM6n-26" target="nb_6ZIkmi3zEc-lVoM6n-9" edge="1">
                    <mxGeometry relative="1" as="geometry"/>
                </mxCell>
                <mxCell id="nb_6ZIkmi3zEc-lVoM6n-26" value="" style="shape=trapezoid;perimeter=trapezoidPerimeter;whiteSpace=wrap;html=1;fixedSize=1;strokeColor=#D0CEE2;fontColor=#1A1A1A;fillColor=#5D7F99;rotation=90;" parent="1" vertex="1">
                    <mxGeometry x="570" y="570" width="120" height="60" as="geometry"/>
                </mxCell>
                <mxCell id="nb_6ZIkmi3zEc-lVoM6n-29" value="LVDS 1A" style="text;html=1;align=center;verticalAlign=middle;resizable=0;points=[];autosize=1;strokeColor=none;fillColor=none;fontColor=#1A1A1A;fontSize=16;" parent="1" vertex="1">
                    <mxGeometry x="5" y="218" width="90" height="30" as="geometry"/>
                </mxCell>
                <mxCell id="nb_6ZIkmi3zEc-lVoM6n-30" value="LVDS 1B" style="text;html=1;align=center;verticalAlign=middle;resizable=0;points=[];autosize=1;strokeColor=none;fillColor=none;fontColor=#1A1A1A;fontSize=16;" parent="1" vertex="1">
                    <mxGeometry x="5" y="585" width="90" height="30" as="geometry"/>
                </mxCell>
                <mxCell id="GVXI9cRI0fCUIjTEkEjG-1" value="8/12 bit mode" style="endArrow=none;html=1;endFill=0;" parent="1" edge="1">
                    <mxGeometry x="-1" y="-22" width="50" height="50" relative="1" as="geometry">
                        <mxPoint x="690" y="120" as="sourcePoint"/>
                        <mxPoint x="690" y="520" as="targetPoint"/>
                        <mxPoint x="2" y="-10" as="offset"/>
                    </mxGeometry>
                </mxCell>
                <mxCell id="GVXI9cRI0fCUIjTEkEjG-3" value="" style="endArrow=classic;html=1;entryX=0;entryY=0.5;entryDx=0;entryDy=0;rounded=0;curved=0;" parent="1" target="nb_6ZIkmi3zEc-lVoM6n-6" edge="1">
                    <mxGeometry width="50" height="50" relative="1" as="geometry">
                        <mxPoint x="690" y="160" as="sourcePoint"/>
                        <mxPoint x="660" y="150" as="targetPoint"/>
                        <Array as="points">
                            <mxPoint x="630" y="160"/>
                        </Array>
                    </mxGeometry>
                </mxCell>
                <mxCell id="GVXI9cRI0fCUIjTEkEjG-4" value="" style="endArrow=classic;html=1;entryX=0;entryY=0.5;entryDx=0;entryDy=0;rounded=0;curved=0;" parent="1" edge="1">
                    <mxGeometry width="50" height="50" relative="1" as="geometry">
                        <mxPoint x="690" y="520" as="sourcePoint"/>
                        <mxPoint x="630" y="550" as="targetPoint"/>
                        <Array as="points">
                            <mxPoint x="630" y="520"/>
                        </Array>
                    </mxGeometry>
                </mxCell>
            </root>
        </mxGraphModel>
    </diagram>
    <diagram id="SXMWevlolXy6wEWWk10X" name="Page-2">
        <mxGraphModel dx="944" dy="774" grid="1" gridSize="10" guides="1" tooltips="1" connect="1" arrows="1" fold="1" page="1" pageScale="1" pageWidth="850" pageHeight="1100" math="0" shadow="0">
            <root>
                <mxCell id="0"/>
                <mxCell id="1" parent="0"/>
            </root>
        </mxGraphModel>
    </diagram>
</mxfile>